<svg xmlns="http://www.w3.org/2000/svg" xmlns:xlink="http://www.w3.org/1999/xlink" width="87" height="66" viewBox="0 0 87 66"><defs><path id="cqd4a" d="M801 265.5v-8.95c0-.36.12-.68.35-.97a1.52 1.52 0 0 1 1.2-.6H814.6c.42 0 .61.19.74.55.09.27-.11.68-.35.8a.72.72 0 0 1-.36.07h-1.3c-.17 0-.33.03-.49.02l-7.52-.02c-.17 0-.33.03-.5.02-.73 0-1.47 0-2.2-.02-.13 0-.22.07-.22.22v15.88l-.02.79.03 1.14c0 .04.08.08.12.12H819.37c.16 0 .2 0 .2-.21v-1.55l.02-.59-.02-.51v-.42-9.5c0-.28.11-.52.35-.67a.7.7 0 0 1 .91.16c.12.14.16.3.16.48l-.01 12.8c0 .45-.22.8-.55 1.1-.16.13-.34.24-.54.29-.15.04-.31.07-.46.07h-16.87c-.48 0-.87-.2-1.18-.56-.25-.29-.38-.63-.38-1.03v-8.9zm20.22-12.72l.5-.51c.14-.15.3-.26.5-.27.21 0 .39.09.53.23.35.36.68.73 1.04 1.08.26.25.31.71-.04 1.02l-.52.52c.05.1.1.17.12.24.12.3-.04.51-.24.71l-1.42 1.46-1.62 1.65-1.4 1.44-1.31 1.36-1.34 1.37-1.32 1.36-1.2 1.21c-.12.13-.35.17-.49.06-.08-.06-.14-.04-.2 0l-1.04.62-1.04.62-.55.35a.35.35 0 0 1-.4 0c-.02-.01-.07 0-.1.02l-.54.54c-.12.1-.26.14-.4.08-.18-.08-.28-.22-.27-.43 0-.13.06-.23.14-.32l.46-.47c.05-.05.06-.08.02-.16a.42.42 0 0 1 0-.32c.17-.35.38-.7.58-1.04l.61-1.07.4-.7c.02-.01.02-.06 0-.08-.17-.24-.12-.44.1-.66l1.58-1.63 6.72-6.9 1.28-1.3c.16-.18.35-.26.57-.22.1.02.18.09.3.14zm-15.84 7.31c-.59.05-1.07-.53-1.05-1.1.02-.52.47-1.09 1.13-1.04.47.03 1.01.47.98 1.14-.02.49-.45 1.05-1.06 1zm1.06 7.55c.01.58-.49 1.1-1.07 1.08a1.1 1.1 0 0 1-1.04-1.12 1.06 1.06 0 1 1 2.1.05zm-1.05-5.39c.55-.01 1.08.5 1.05 1.13a1.07 1.07 0 0 1-1.07 1.04c-.55-.01-1.03-.48-1.04-1.07 0-.6.49-1.11 1.06-1.1zm1.05 9.7c0 .6-.47 1.08-1.06 1.07-.6 0-1.03-.48-1.04-1.03-.01-.65.44-1.07.9-1.12.73-.09 1.22.52 1.2 1.08z"/><path id="cqd4b" d="M797.96 252.86l9.9-9.9a20 20 0 0 1 28.28 0l9.9 9.9a20 20 0 0 1 0 28.28l-9.9 9.9a20 20 0 0 1-28.28 0l-9.9-9.9a20 20 0 0 1 0-28.28z"/><path id="cqd4c" d="M776.96 252.86l9.9-9.9a20 20 0 0 1 28.28 0l9.9 9.9a20 20 0 0 1 0 28.28l-9.9 9.9a20 20 0 0 1-28.28 0l-9.9-9.9a20 20 0 0 1 0-28.28z"/><path id="cqd4d" d="M787.96 252.86l9.9-9.9a20 20 0 0 1 28.28 0l9.9 9.9a20 20 0 0 1 0 28.28l-9.9 9.9a20 20 0 0 1-28.28 0l-9.9-9.9a20 20 0 0 1 0-28.28z"/><linearGradient id="cqd4e" x1="792.9" x2="831.1" y1="296.9" y2="237.1" gradientUnits="userSpaceOnUse"><stop offset="0" stop-color="#38edff"/><stop offset="1" stop-color="#38b8ff"/></linearGradient><mask id="cqd4g" width="2" height="2" x="-1" y="-1"><path fill="#fff" d="M801 252h23v24h-23z"/><use xlink:href="#cqd4a"/></mask><filter id="cqd4f" width="61" height="66" x="782" y="242" filterUnits="userSpaceOnUse"><feOffset dy="4" in="SourceGraphic" result="FeOffset1053Out"/><feGaussianBlur in="FeOffset1053Out" result="FeGaussianBlur1054Out" stdDeviation="3.6 3.6"/></filter></defs><g><g transform="translate(-768 -234)"><use fill="#eaf4fd" xlink:href="#cqd4b"/></g><g transform="translate(-768 -234)"><use fill="#c0e8ff" xlink:href="#cqd4c"/></g><g transform="translate(-768 -234)"><use fill="url(#cqd4e)" xlink:href="#cqd4d"/></g><g transform="translate(-768 -234)"><g filter="url(#cqd4f)"><use fill="none" stroke-opacity=".07" stroke-width="0" mask="url(&quot;#cqd4g&quot;)" xlink:href="#cqd4a"/><use fill-opacity=".07" xlink:href="#cqd4a"/></g><use fill="#fff" xlink:href="#cqd4a"/></g></g></svg>