<svg xmlns="http://www.w3.org/2000/svg" xmlns:xlink="http://www.w3.org/1999/xlink" width="87" height="66" viewBox="0 0 87 66"><defs><path id="rog1a" d="M381.96 615.86l9.9-9.9a20 20 0 0 1 28.28 0l9.9 9.9a20 20 0 0 1 0 28.28l-9.9 9.9a20 20 0 0 1-28.28 0l-9.9-9.9a20 20 0 0 1 0-28.28z"/><path id="rog1b" d="M360.96 615.86l9.9-9.9a20 20 0 0 1 28.28 0l9.9 9.9a20 20 0 0 1 0 28.28l-9.9 9.9a20 20 0 0 1-28.28 0l-9.9-9.9a20 20 0 0 1 0-28.28z"/><path id="rog1c" d="M371.96 615.86l9.9-9.9a20 20 0 0 1 28.28 0l9.9 9.9a20 20 0 0 1 0 28.28l-9.9 9.9a20 20 0 0 1-28.28 0l-9.9-9.9a20 20 0 0 1 0-28.28z"/><linearGradient id="rog1d" x1="378.9" x2="413.1" y1="659.9" y2="600.1" gradientUnits="userSpaceOnUse"><stop offset="0" stop-color="#fed46c"/><stop offset="1" stop-color="#f58b59"/></linearGradient></defs><g><g transform="translate(-352 -597)"><use fill="#fff1c7" xlink:href="#rog1a"/></g><g transform="translate(-352 -597)"><use fill="#ffe698" xlink:href="#rog1b"/></g><g transform="translate(-352 -597)"><use fill="url(#rog1d)" xlink:href="#rog1c"/></g></g></svg>