<svg xmlns="http://www.w3.org/2000/svg" xmlns:xlink="http://www.w3.org/1999/xlink" width="87" height="66" viewBox="0 0 87 66"><defs><path id="o7rla" d="M374.5 262.04h-.23c-1.2 0-2.41-.02-3.62 0a2.5 2.5 0 0 0-2.14 1.16c-.28.43-.4.9-.41 1.39v2.94c-.02.85.3 1.55.95 2.07.4.33.87.53 1.42.52h3.8c.18 0 .24.06.24.24 0 1.21.02 2.42-.01 3.63-.02.83-.51 1.67-1.43 1.89-.25.06-.5.11-.75.11h-18.3c-.7 0-1.25-.33-1.68-.9a1.8 1.8 0 0 1-.34-1.12l.01-15.92c0-.66.36-1.16.91-1.53.4-.25.83-.32 1.28-.32h18.32c.75 0 1.5.44 1.79 1.22.1.3.18.62.19.93.02 1.15 0 2.3 0 3.45v.24zm-1.4 6.98h-2.6c-.49 0-.84-.26-1.1-.65a1.48 1.48 0 0 1-.2-.85c0-.96.02-1.92-.01-2.88-.03-.9.78-1.51 1.52-1.5h4.78a1.45 1.45 0 0 1 1.51 1.36v3.24c0 .47-.38 1-.79 1.15-.2.08-.44.12-.66.12-.81.02-1.63 0-2.45 0zm-.02-2.9a1.37 1.37 0 0 0-1.3-1.4c-.81-.05-1.44.7-1.45 1.31-.02.89.63 1.47 1.4 1.47.72-.01 1.36-.58 1.35-1.38zm-3.67-11.4h-15.28v-.03l.48-.12 1.08-.2 1.45-.3.93-.2 1.47-.28.79-.2c.32-.07.64-.1.96-.17.33-.07.65-.16.97-.22.46-.1.93-.18 1.4-.27l.9-.2c.28-.07.56-.1.84-.17l.99-.22c.24-.05.48-.12.72-.14a2 2 0 0 1 1.2.33c.36.23.62.56.78.95.1.24.13.51.19.77l.1.48c.02.06.02.12.03.2z"/><path id="o7rlb" d="M348.96 252.86l9.9-9.9a20 20 0 0 1 28.28 0l9.9 9.9a20 20 0 0 1 0 28.28l-9.9 9.9a20 20 0 0 1-28.28 0l-9.9-9.9a20 20 0 0 1 0-28.28z"/><path id="o7rlc" d="M327.96 252.86l9.9-9.9a20 20 0 0 1 28.28 0l9.9 9.9a20 20 0 0 1 0 28.28l-9.9 9.9a20 20 0 0 1-28.28 0l-9.9-9.9a20 20 0 0 1 0-28.28z"/><path id="o7rld" d="M338.96 252.86l9.9-9.9a20 20 0 0 1 28.28 0l9.9 9.9a20 20 0 0 1 0 28.28l-9.9 9.9a20 20 0 0 1-28.28 0l-9.9-9.9a20 20 0 0 1 0-28.28z"/><linearGradient id="o7rle" x1="343.9" x2="382.1" y1="296.9" y2="237.1" gradientUnits="userSpaceOnUse"><stop offset="0" stop-color="#38edff"/><stop offset="1" stop-color="#38b8ff"/></linearGradient><mask id="o7rlg" width="2" height="2" x="-1" y="-1"><path fill="#fff" d="M352 252h25v24h-25z"/><use xlink:href="#o7rla"/></mask><filter id="o7rlf" width="63" height="66" x="333" y="242" filterUnits="userSpaceOnUse"><feOffset dy="4" in="SourceGraphic" result="FeOffset1053Out"/><feGaussianBlur in="FeOffset1053Out" result="FeGaussianBlur1054Out" stdDeviation="3.6 3.6"/></filter></defs><g><g transform="translate(-319 -234)"><use fill="#eaf4fd" xlink:href="#o7rlb"/></g><g transform="translate(-319 -234)"><use fill="#c0e8ff" xlink:href="#o7rlc"/></g><g transform="translate(-319 -234)"><use fill="url(#o7rle)" xlink:href="#o7rld"/></g><g transform="translate(-319 -234)"><g filter="url(#o7rlf)"><use fill="none" stroke-opacity=".07" stroke-width="0" mask="url(&quot;#o7rlg&quot;)" xlink:href="#o7rla"/><use fill-opacity=".07" xlink:href="#o7rla"/></g><use fill="#fff" xlink:href="#o7rla"/></g></g></svg>