<svg xmlns="http://www.w3.org/2000/svg" xmlns:xlink="http://www.w3.org/1999/xlink" width="87" height="66" viewBox="0 0 87 66"><defs><path id="8iwna" d="M382.96 1977.86l9.9-9.9a20 20 0 0 1 28.28 0l9.9 9.9a20 20 0 0 1 0 28.28l-9.9 9.9a20 20 0 0 1-28.28 0l-9.9-9.9a20 20 0 0 1 0-28.28z"/><path id="8iwnb" d="M361.96 1977.86l9.9-9.9a20 20 0 0 1 28.28 0l9.9 9.9a20 20 0 0 1 0 28.28l-9.9 9.9a20 20 0 0 1-28.28 0l-9.9-9.9a20 20 0 0 1 0-28.28z"/><path id="8iwnc" d="M372.96 1977.86l9.9-9.9a20 20 0 0 1 28.28 0l9.9 9.9a20 20 0 0 1 0 28.28l-9.9 9.9a20 20 0 0 1-28.28 0l-9.9-9.9a20 20 0 0 1 0-28.28z"/><linearGradient id="8iwnd" x1="377.9" x2="416.1" y1="2021.9" y2="1962.1" gradientUnits="userSpaceOnUse"><stop offset="0" stop-color="#38edff"/><stop offset="1" stop-color="#38b8ff"/></linearGradient></defs><g><g transform="translate(-353 -1959)"><use fill="#eaf4fd" xlink:href="#8iwna"/></g><g transform="translate(-353 -1959)"><use fill="#c0e8ff" xlink:href="#8iwnb"/></g><g transform="translate(-353 -1959)"><use fill="url(#8iwnd)" xlink:href="#8iwnc"/></g></g></svg>