<svg xmlns="http://www.w3.org/2000/svg" xmlns:xlink="http://www.w3.org/1999/xlink" width="87" height="66" viewBox="0 0 87 66"><defs><path id="2zt6a" d="M809.16 268.19c.05.03.1.08.15.08.3.02.6.02.9.05.5.05 1.02.12 1.54.19l.48.04.97.12c.46.06.92.13 1.38.15.4.02.8-.01 1.2-.02h.22c.48 0 .96-.04 1.43-.16.49-.13.98-.22 1.45-.37a2.8 2.8 0 0 0 1.39-.96c.24-.32.4-.7.42-1.13 0-.17 0-.35.05-.5a.78.78 0 0 1 .28-.36c.26-.17.55-.3.83-.46l.96-.54c.31-.16.64-.29.95-.44l1.01-.51c.37-.19.74-.38 1.12-.55.28-.13.56-.26.86-.34.3-.07.6-.1.9.07.32.18.42.69.3 1.03-.14.4-.36.73-.64 1.02a147.81 147.81 0 0 1-2.05 1.75c-.44.37-.88.71-1.32 1.07a9.6 9.6 0 0 1-1.89 1.21c-.52.25-1.04.5-1.57.72-.67.27-1.35.52-2.03.78l-1.18.4c-.26.1-.5.22-.77.31-.2.07-.4.12-.6.17-.32.08-.65.16-.98.22-.36.06-.72.1-1.08.14l-.8.09-.24.02-5.24.01c-.36 0-.7.14-1.02.3-.6.27-1.08.72-1.62 1.09-.09.06-.18.12-.26.2-.14.1-.22.06-.3-.07l-1.56-2.27-1.15-1.62-1.43-2.1-.09-.1c.32-.26.65-.5.94-.77.35-.31.72-.62 1-1 .3-.38.6-.74.97-1.05.47-.4.99-.74 1.58-.93.28-.1.58-.16.86-.24.54-.17 1.1-.16 1.65-.16.36 0 .72.03 1.08.09.43.07.85.2 1.27.3.34.09.67.18 1 .29.33.1.64.23.95.35.19.06.38.12.56.2l.74.32c.37.15.74.3 1.14.31l1.86.08 2 .12c.4.04.82.08 1.22.17.31.08.63.16.89.4.21.22.32.63.26.93a1.73 1.73 0 0 1-1.06 1.32 8.3 8.3 0 0 1-.97.36c-.23.07-.47.1-.7.15-.3.06-.6.13-.92.18-.2.03-.4.05-.6.05-.62 0-1.26 0-1.88-.04-.68-.04-1.36-.13-2.04-.2h-.06c-.7 0-1.39-.02-2.09-.03l-.6.03-.02.04zm7.84-5.85a5.46 5.46 0 0 1-3.5-1.25 5.99 5.99 0 0 1-2.4-4.9c0-1.7.6-3.18 1.8-4.39a5.92 5.92 0 0 1 4.36-1.8c1.6.01 3 .58 4.15 1.7a6.09 6.09 0 0 1 1.89 4.88 5.93 5.93 0 0 1-1.64 3.82 6 6 0 0 1-4.66 1.94zm.18-1.51c.3-.04.57-.06.84-.12.35-.08.72-.15 1.04-.3a4.59 4.59 0 0 0 2.46-2.73c.2-.5.22-1.03.25-1.56.02-.23-.06-.46-.06-.7 0-.46-.19-.87-.38-1.26a4.05 4.05 0 0 0-1.35-1.64c-.33-.22-.67-.46-1.03-.63-.32-.14-.68-.2-1.03-.28-.26-.05-.54-.1-.8-.08-.5.06-1.02.12-1.51.31a4.75 4.75 0 0 0-2.94 3.64c-.09.6-.08 1.2.1 1.8a5.15 5.15 0 0 0 1 1.97c.31.37.68.69 1.11.91.37.19.74.38 1.13.5.38.1.79.12 1.17.17zM800.95 278c-.2-.3-.4-.58-.58-.87l-.79-1.15-1.09-1.62-1.56-2.34-.9-1.31c-.34-.52-.69-1.03-1.02-1.55-.02-.04 0-.14.04-.17l1.62-1.04 1.46-.94.84-.53 5.73 8.28-3.75 3.24zm1.61-3.02c.06-.41-.37-.81-.76-.82-.46 0-.81.4-.81.78 0 .44.34.83.76.83.48-.01.81-.33.81-.8zm13.98-22.47h1.32c.13 0 .17.05.17.18v.47c0 .1.01.15.13.2.33.12.65.29.99.45l-.48 1.2-.01.01-.12.26c-.09-.04-.18-.08-.26-.14a1.7 1.7 0 0 0-.85-.33c-.1 0-.2.01-.28.05-.13.06-.06.17 0 .22.16.1.32.18.48.24.53.2 1.03.47 1.3.98.2.36.36.77.2 1.23-.06.21-.1.43-.22.62a2 2 0 0 1-.93.77v.75c.01.13-.04.17-.17.17h-1.19c-.12 0-.17-.04-.16-.16v-.55a.22.22 0 0 0-.11-.15c-.26-.12-.53-.22-.8-.33a.59.59 0 0 1-.21-.17c-.04-.05-.08-.15-.06-.21l.47-1.35c.3.17.58.35.88.5.23.1.48.13.73.03.05-.02.1-.11.1-.17.01-.07-.03-.17-.08-.2l-.88-.45c-.47-.25-.87-.55-1.03-1.12a1.63 1.63 0 0 1 .44-1.68c.15-.16.35-.25.52-.37.05-.04.1-.12.1-.18v-.77z"/><path id="2zt6b" d="M797.96 252.86l9.9-9.9a20 20 0 0 1 28.28 0l9.9 9.9a20 20 0 0 1 0 28.28l-9.9 9.9a20 20 0 0 1-28.28 0l-9.9-9.9a20 20 0 0 1 0-28.28z"/><path id="2zt6c" d="M776.96 252.86l9.9-9.9a20 20 0 0 1 28.28 0l9.9 9.9a20 20 0 0 1 0 28.28l-9.9 9.9a20 20 0 0 1-28.28 0l-9.9-9.9a20 20 0 0 1 0-28.28z"/><path id="2zt6d" d="M787.96 252.86l9.9-9.9a20 20 0 0 1 28.28 0l9.9 9.9a20 20 0 0 1 0 28.28l-9.9 9.9a20 20 0 0 1-28.28 0l-9.9-9.9a20 20 0 0 1 0-28.28z"/><linearGradient id="2zt6e" x1="794.9" x2="829.1" y1="296.9" y2="237.1" gradientUnits="userSpaceOnUse"><stop offset="0" stop-color="#fed46c"/><stop offset="1" stop-color="#f58b59"/></linearGradient><mask id="2zt6g" width="2" height="2" x="-1" y="-1"><path fill="#fff" d="M795 250h33v28h-33z"/><use xlink:href="#2zt6a"/></mask><filter id="2zt6f" width="71" height="70" x="776" y="240" filterUnits="userSpaceOnUse"><feOffset dy="4" in="SourceGraphic" result="FeOffset1103Out"/><feGaussianBlur in="FeOffset1103Out" result="FeGaussianBlur1104Out" stdDeviation="3.6 3.6"/></filter></defs><g><g transform="translate(-768 -234)"><use fill="#fff1c7" xlink:href="#2zt6b"/></g><g transform="translate(-768 -234)"><use fill="#ffe698" xlink:href="#2zt6c"/></g><g transform="translate(-768 -234)"><use fill="url(#2zt6e)" xlink:href="#2zt6d"/></g><g transform="translate(-768 -234)"><g filter="url(#2zt6f)"><use fill="none" stroke-opacity=".07" stroke-width="0" mask="url(&quot;#2zt6g&quot;)" xlink:href="#2zt6a"/><use fill-opacity=".07" xlink:href="#2zt6a"/></g><use fill="#fff" xlink:href="#2zt6a"/></g></g></svg>