<svg xmlns="http://www.w3.org/2000/svg" xmlns:xlink="http://www.w3.org/1999/xlink" width="87" height="66" viewBox="0 0 87 66"><defs><path id="89wqa" d="M381.96 1384.86l9.9-9.9a20 20 0 0 1 28.28 0l9.9 9.9a20 20 0 0 1 0 28.28l-9.9 9.9a20 20 0 0 1-28.28 0l-9.9-9.9a20 20 0 0 1 0-28.28z"/><path id="89wqb" d="M360.96 1384.86l9.9-9.9a20 20 0 0 1 28.28 0l9.9 9.9a20 20 0 0 1 0 28.28l-9.9 9.9a20 20 0 0 1-28.28 0l-9.9-9.9a20 20 0 0 1 0-28.28z"/><path id="89wqc" d="M371.96 1384.86l9.9-9.9a20 20 0 0 1 28.28 0l9.9 9.9a20 20 0 0 1 0 28.28l-9.9 9.9a20 20 0 0 1-28.28 0l-9.9-9.9a20 20 0 0 1 0-28.28z"/><linearGradient id="89wqd" x1="378.9" x2="413.1" y1="1428.9" y2="1369.1" gradientUnits="userSpaceOnUse"><stop offset="0" stop-color="#9af48b"/><stop offset="1" stop-color="#35d772"/></linearGradient></defs><g><g transform="translate(-352 -1366)"><use fill="#d1f9dc" xlink:href="#89wqa"/></g><g transform="translate(-352 -1366)"><use fill="#abfcc2" xlink:href="#89wqb"/></g><g transform="translate(-352 -1366)"><use fill="url(#89wqd)" xlink:href="#89wqc"/></g></g></svg>